<svg width="28" height="35" viewBox="0 0 28 35" fill="none" xmlns="http://www.w3.org/2000/svg">
<path d="M14.1561 0H14.052L0 1.43695V26.7889L14.052 35L28 26.7889V1.43695L14.1561 0ZM26.0223 12.4194L14.052 5.43988V5.33724H13.948L13.8439 5.2346V5.33724L1.9777 12.4194V3.18182L13.948 1.95015L26.0223 3.18182V12.4194ZM13.948 6.97947L25.9182 13.8563L21.2342 16.5249L13.8439 12.2141V13.651L19.9851 17.2434L19.0483 17.7566L13.8439 14.6774V16.1144L17.7993 18.4751L16.9665 18.9883L13.8439 17.1408V18.5777L15.8216 19.7067L13.948 20.8358L2.08178 13.9589L13.948 6.97947ZM1.9777 15.4985L13.8439 22.478V23.5044L5.62082 18.6804V20.1173L13.948 25.044V26.173L5.62082 21.349V22.7859L13.948 27.7126L22.3792 22.6833V17.346L25.9182 15.2933V25.5572L13.948 32.6393L1.9777 25.6598V15.4985Z" fill="black"/>
</svg>
