<svg xmlns="http://www.w3.org/2000/svg" style="display: none">
  <symbol viewBox="0 0 40 35" id="food">
    <g>
      <path
        d="M37.74 23.3H2.26A2.23 2.23 0 000 25.48v1.77c0 1.17 1 2.13 2.26 2.13h.52v.5a5.12 5.12 0 005.2 5.02h24.04c2.89 0 5.2-2.28 5.2-5.01v-.51h.52c1.21 0 2.26-.96 2.26-2.18v-1.77c0-1.12-1-2.13-2.26-2.13zm-2.04 6.59c0 1.92-1.63 3.49-3.63 3.49H7.93c-2 0-3.63-1.57-3.63-3.5v-.5h31.4v.5zm2.73-2.69c0 .36-.32.66-.69.66H2.26a.68.68 0 01-.69-.66v-1.77c0-.3.32-.61.69-.61H37.8c.36 0 .68.3.68.66v1.72h-.05zm-29.93-8l2.84 2.02 2.89-2.02 2.88 2.02L20 19.2l2.83 2.02 2.9-2.02 2.88 2.02 2.89-2.02 2.88 2.02 3.31-2.38-.9-1.21-2.4 1.67-2.9-2.03-2.88 2.03-2.89-2.03-2.89 2.03L20 17.27l-2.89 2.03-2.88-2.03-2.9 2.03-2.83-2.03-2.88 2.03-2.42-1.67-.94 1.21 3.36 2.38L8.5 19.2zm28.72-3.45c0-.3.05-1.31 0-1.52C36.85 6.33 29.29 0 20 0 10.7 0 3.1 6.33 2.73 14.23v1.52h34.49zM20 1.52c8.4 0 15.33 5.67 15.64 12.71H4.3C4.67 7.2 11.6 1.52 20 1.52z"
        fill="#81B3D2"></path>
      <path
        d="M20 8.61c.58 0 1.05-.45 1.05-1.01S20.58 6.58 20 6.58c-.58 0-1.05.46-1.05 1.02s.47 1 1.05 1zm-4.2-2.48c.58 0 1.05-.45 1.05-1.01S16.38 4.1 15.8 4.1c-.58 0-1.05.46-1.05 1.02s.47 1 1.05 1zm8.4 0c.58 0 1.05-.45 1.05-1.01S24.78 4.1 24.2 4.1c-.58 0-1.05.46-1.05 1.02s.47 1 1.05 1z"
        fill="#81B3D2"></path>
    </g>
    <symbol viewBox="0 0 32 38" id="gift">
      <g>
        <path
          d="M30.58 11.2h-12.4c6.91-3.44 7.47-5.62 7.22-6.83-.56-1.98-2.85-3.5-4.98-2.69-2.8 1.07-3.56 5.22-4.32 8.2-.96-3.03-1.88-6.88-4.06-8.85A3.7 3.7 0 009.14 0c-2.03.2-4.92 2.69-3.7 5.47 1.11 2.69 4.82 4.4 7.3 5.78H1.43c-.81 0-1.42.65-1.42 1.41v5.68c0 .8.66 1.42 1.42 1.42h.15V38h28.96V19.77h.05c.81 0 1.42-.66 1.42-1.42v-5.68c0-.8-.66-1.46-1.42-1.46zm-9.35-8.25c1.07-.15 2.5.66 2.64 1.62.2 1.37-1.67 2.63-2.54 3.2-1.27.85-2.49 1.3-3.65 2.02.4-1.88 1.27-6.54 3.55-6.84zM9.75 7.91c-1.12-.76-3.25-2.23-3.2-3.9C6.6 2.2 9.45.72 10.97 2.1c1.93 1.67 2.85 5.57 3.56 8.3-1.63-.8-3.15-1.41-4.78-2.48zm3 28.57h-9.7V19.77h9.7v16.71zm0-18.23H1.52v-5.52h11.23v5.52zm5.08 18.23h-3.6V12.73h3.6v23.75zm11.17 0h-9.65V19.77h9.7v16.71H29zm1.48-18.23H19.35v-5.52h11.13v5.52z"
          fill="#81B3D2"></path>
      </g>
    </symbol>
    <symbol viewBox="0 0 39 37" id="house">
      <g>
        <path d="M15.4 33.22h8.35V21.06H15.4v12.16zm6.84-1.48h-5.32v-9.2h5.27v9.2h.05z" fill="#81B3D2"></path>
        <path d="M37.9 20.04l1.1-1.07-5.17-5.03V.2h-7.2v6.72L19.47 0 0 19.03l1.1 1.06 4.07-3.96v19.23H3.13v1.47H36.5v-1.47h-2.66V16.08l4.07 3.96zM28.14 1.73h4.13v10.73l-4.13-4.02V1.73zm4.18 33.57H6.73V14.6L19.47 2.14l12.8 12.46v20.7h.05z" fill="#81B3D2"></path>
        <path
          d="M15.56 13.84a4.01 4.01 0 004.02 3.96 4.03 4.03 0 004.07-3.96 3.98 3.98 0 00-4.07-3.92 3.94 3.94 0 00-4.02 3.92zm4.02-2.55a2.59 2.59 0 012.6 2.55 2.58 2.58 0 01-2.6 2.54 2.59 2.59 0 01-2.61-2.54c0-1.38 1.2-2.55 2.6-2.55zm-9.19 9.77H8.82v1.99h1.57v-1.99zm3.08 0H11.9v1.99h1.57v-1.99zm-3.08 3.05H8.82v1.99h1.57v-2zm3.08 0H11.9v1.99h1.57v-2zm13.57-3.05h-1.56v1.99h1.56v-1.99zm3.14 0H28.6v1.99h1.57v-1.99zm-3.14 3.05h-1.56v1.99h1.56v-2zm3.14 0H28.6v1.99h1.57v-2z"
          fill="#81B3D2"></path>
      </g>
    </symbol>
  </svg>
